<svg id="Capa_1" enable-background="new 0 0 512 512" height="512" viewBox="0 0 512 512" width="512" xmlns="http://www.w3.org/2000/svg"><g><g><g><path d="m341.049 504.515h-170.098c-15.688 0-28.406-12.718-28.406-28.406v-100.795c0-15.688 12.718-28.406 28.406-28.406h170.099c15.688 0 28.406 12.718 28.406 28.406v100.794c0 15.689-12.718 28.407-28.407 28.407z" fill="#d8eafb"/></g><g><path d="m341.105 346.908h-1.774v99.132c0 15.658-12.693 28.351-28.351 28.351h-168.436v1.774c0 15.658 12.693 28.351 28.351 28.351h170.21c15.658 0 28.351-12.693 28.351-28.351v-100.906c0-15.658-12.693-28.351-28.351-28.351z" fill="#b3d8fb"/></g></g><g><g><path d="m359.013 300.648-13.522 5.967c-7.453 3.289-16.161-.087-19.449-7.54l-73.482-166.523 40.511-17.876 73.482 166.523c3.289 7.452-.087 16.16-7.54 19.449z" fill="#7c8b96"/></g><g><path d="m366.565 281.225-73.494-166.549-20.162 8.897 63.59 144.105c3.282 7.438-.087 16.129-7.525 19.411l-6.881 3.036 3.961 8.977c3.282 7.438 11.973 10.807 19.411 7.525l13.575-5.99c7.438-3.283 10.807-11.974 7.525-19.412z" fill="#465961"/></g><g><path d="m152.987 300.648 13.522 5.967c7.453 3.289 16.161-.087 19.449-7.54l73.482-166.523-40.511-17.876-73.482 166.523c-3.289 7.452.087 16.16 7.54 19.449z" fill="#7c8b96"/></g><g><path d="m239.311 123.67-64.593 146.379c-3.282 7.438-11.973 10.807-19.411 7.525l-6.914-3.051-2.958 6.703c-3.282 7.438.087 16.129 7.525 19.411l13.575 5.99c7.438 3.282 16.129-.087 19.411-7.525l73.494-166.549z" fill="#465961"/></g></g><g><path d="m341.105 339.423h-170.21c-19.76 0-35.836 16.076-35.836 35.836v100.906c0 19.76 16.076 35.836 35.836 35.836h22.208c4.134 0 7.485-3.351 7.485-7.485s-3.351-7.485-7.485-7.485h-22.208c-11.505 0-20.865-9.36-20.865-20.865v-100.908c0-11.505 9.36-20.865 20.865-20.865h170.21c11.505 0 20.865 9.36 20.865 20.865v100.906c0 11.505-9.36 20.865-20.865 20.865h-111.304c-4.134 0-7.485 3.351-7.485 7.485s3.351 7.485 7.485 7.485h111.304c19.76 0 35.836-16.076 35.836-35.836v-100.905c0-19.76-16.076-35.835-35.836-35.835z"/><path d="m241.121 468.03c2.976 0 5.791-1.787 6.958-4.721l26.543-66.734c1.528-3.842-.348-8.194-4.189-9.722-3.842-1.526-8.193.348-9.722 4.189l-26.543 66.734c-1.528 3.842.348 8.194 4.189 9.722.908.361 1.844.532 2.764.532z"/><path d="m291.535 463.82c1.181.684 2.471 1.01 3.745 1.01 2.583 0 5.096-1.339 6.484-3.735l17.824-30.771c1.368-2.361 1.342-5.28-.067-7.617l-17.824-29.564c-2.134-3.54-6.735-4.68-10.275-2.545s-4.68 6.735-2.545 10.275l15.54 25.775-15.607 26.943c-2.072 3.578-.852 8.157 2.725 10.229z"/><path d="m204.867 426.648 15.54-25.775c2.134-3.54.995-8.141-2.545-10.275-3.542-2.134-8.142-.995-10.275 2.545l-17.824 29.564c-1.409 2.337-1.435 5.256-.067 7.617l17.824 30.771c1.388 2.396 3.901 3.735 6.484 3.735 1.273 0 2.564-.326 3.745-1.01 3.577-2.072 4.797-6.652 2.725-10.229z"/><path d="m149.878 307.456-5.889 13.346c-1.669 3.782.044 8.201 3.826 9.87 2.645 1.084 7.557.755 9.87-3.826l5.889-13.347c2.888 1.264 5.902 1.865 8.871 1.864 8.533 0 16.687-4.945 20.349-13.241l63.211-143.247 12.186 27.621c1.235 2.8 3.977 4.466 6.852 4.466 1.009 0 2.035-.205 3.018-.639 3.782-1.669 5.496-6.088 3.827-9.87l-19.576-44.371c10.192-1.482 19.281-6.505 25.947-13.798l71.457 161.961c1.611 3.651-.049 7.931-3.699 9.541l-13.574 5.99c-3.649 1.61-7.931-.049-9.541-3.698l-36.762-83.325c-1.67-3.782-6.089-5.496-9.87-3.827-3.782 1.669-5.496 6.088-3.827 9.87l36.763 83.326c3.661 8.296 11.814 13.24 20.348 13.24 2.969 0 5.983-.6 8.871-1.864l5.889 13.346c2.762 3.009 3.218 5.591 9.87 3.826 3.782-1.669 5.495-6.088 3.826-9.87l-5.889-13.346c11.16-4.965 16.225-18.071 11.291-29.253l-75.835-171.886c1.288-3.964 2.03-8.176 2.123-12.553.466-21.876-15.306-40.392-36.248-44.003.019-.215.033-.431.033-.65v-41.624c0-4.134-3.351-7.485-7.485-7.485s-7.485 3.351-7.485 7.485v41.626c0 .22.014.436.033.651-8.512 1.46-16.413 5.402-22.789 11.511-8.43 8.078-13.209 18.955-13.458 30.628-.107 5.048.642 9.982 2.175 14.64l-75.888 171.661c-4.935 11.182.13 24.289 11.29 29.254zm106.113-243.362c.206 0 .415.002.621.007 15.844.338 28.459 13.502 28.121 29.346-.333 15.636-13.158 28.127-28.724 28.126-.206 0-.414-.002-.621-.007-7.675-.163-14.827-3.306-20.138-8.848-5.311-5.543-8.146-12.822-7.982-20.497.333-15.637 13.158-28.127 28.723-28.127zm-103.709 220.157 71.548-161.845c.205.222.401.45.611.669 5.841 6.095 13.149 10.27 21.159 12.215l2.225 5.043-68.726 155.746c-1.611 3.65-5.892 5.31-9.542 3.699l-13.574-5.989c-3.651-1.612-5.31-5.892-3.701-9.538z"/></g></g></svg>